<?xml version="1.0" encoding="utf-8"?>
<!-- Generator: Adobe Illustrator 21.0.0, SVG Export Plug-In . SVG Version: 6.00 Build 0)  -->
<svg version="1.1" id="Layer_1" xmlns="http://www.w3.org/2000/svg" xmlns:xlink="http://www.w3.org/1999/xlink" x="0px" y="0px"
	 viewBox="0 0 512 512" style="enable-background:new 0 0 512 512;" xml:space="preserve">
<style type="text/css">
	.cs-st0{fill:#DADAE5;}
	.cs-st1{fill:#FFFFFF;}
</style>
<circle class="cs-st0" cx="256" cy="256" r="239"/>
<g>
	<path class="cs-st1" d="M351.8,331c-0.5-0.5-1-1-1.5-1.5L190.8,164.4c-0.5-0.5-0.9-1.1-1.4-1.6c-7.8-8.1-20.6-8.3-28.7-0.5
		s-8.3,20.6-0.5,28.7c0.5,0.5,1,1,1.5,1.5l159.4,165.1c0.5,0.5,0.9,1.1,1.4,1.6c7.8,8.1,20.6,8.3,28.7,0.5
		C359.4,352,359.6,339.1,351.8,331z"/>
	<path class="cs-st1" d="M160.2,331c0.5-0.5,1-1,1.5-1.5l159.4-165.1c0.5-0.5,0.9-1.1,1.4-1.6c7.8-8.1,20.6-8.3,28.7-0.5
		s8.3,20.6,0.5,28.7c-0.5,0.5-1,1-1.5,1.5L190.8,357.6c-0.5,0.5-0.9,1.1-1.4,1.6c-7.8,8.1-20.6,8.3-28.7,0.5S152.4,339.1,160.2,331z
		"/>
</g>
</svg>
