<?xml version="1.0" encoding="utf-8"?>
<!-- Generator: Adobe Illustrator 21.0.0, SVG Export Plug-In . SVG Version: 6.00 Build 0)  -->
<svg version="1.1" id="Layer_1" xmlns="http://www.w3.org/2000/svg" xmlns:xlink="http://www.w3.org/1999/xlink" x="0px" y="0px"
	 viewBox="0 0 512 512" style="enable-background:new 0 0 512 512;" xml:space="preserve">
<style type="text/css">
	.st0{fill:#377FC2;}
</style>
<g id="Hambugur">
	<path class="st0" d="M446.1,85.4c-0.3,0-0.5,0-0.8,0V85H78.8v0.6C64,87.1,52.4,99.7,52.4,114.9s11.6,27.8,26.4,29.3v0.9h366.5v-0.7
		c0.3,0,0.5,0,0.8,0c16.3,0,29.5-13.2,29.5-29.5S462.4,85.4,446.1,85.4z"/>
	<path class="st0" d="M361.8,226.3c-0.2,0-0.4,0-0.6,0v-0.4h-288v0.6c-11.7,1.6-20.7,14.1-20.7,29.3c0,15.2,9.1,27.8,20.7,29.3v0.9
		h288v-0.7c0.2,0,0.4,0,0.6,0c12.8,0,23.2-13.2,23.2-29.5S374.6,226.3,361.8,226.3z"/>
	<path class="st0" d="M281.7,367.2c-0.2,0-0.3,0-0.5,0v-0.4H67.8v0.6c-8.6,1.6-15.4,14.1-15.4,29.3c0,15.2,6.7,27.8,15.4,29.3v0.9
		h213.5v-0.7c0.2,0,0.3,0,0.5,0c9.5,0,17.2-13.2,17.2-29.5C298.9,380.5,291.2,367.2,281.7,367.2z"/>
</g>
<g id="Cross">
	<path class="st0" d="M447.3,370c-0.3-0.2-0.5-0.4-0.8-0.6l0.3-0.4l-339-284.5l-0.5,0.5C92.5,75,72.1,77.7,60.3,91.8
		s-10.9,34.7,1.6,47.6l-0.7,0.8l339,284.5l0.6-0.7c0.2,0.2,0.5,0.4,0.7,0.6c15.1,12.7,37.6,10.7,50.2-4.4
		C464.4,405.2,462.4,382.7,447.3,370z"/>
	<path class="st0" d="M68.7,376.6c0.2-0.2,0.5-0.4,0.7-0.6l-0.4-0.4L398,79.5l0.5,0.5c14.6-10.6,35.1-8.7,47.4,5s12.1,34.3,0,47.7
		l0.7,0.8L117.8,429.6l-0.6-0.7c-0.2,0.2-0.5,0.5-0.7,0.7c-14.6,13.2-37.2,12-50.3-2.6C52.9,412.3,54.1,389.8,68.7,376.6z"/>
</g>
</svg>
