<?xml version="1.0" encoding="utf-8"?>
<!-- Generator: Adobe Illustrator 21.0.0, SVG Export Plug-In . SVG Version: 6.00 Build 0)  -->
<svg version="1.1" id="Layer_1" xmlns="http://www.w3.org/2000/svg" xmlns:xlink="http://www.w3.org/1999/xlink" x="0px" y="0px"
	 viewBox="0 0 512 512" style="enable-background:new 0 0 512 512;" xml:space="preserve">
<style type="text/css">
	.st0{fill:#377FC2;}
</style>
<g>
	<path class="st0" d="M403.2,131.8c0,0,10.2,38.5,29.2,38.7c19,0.2,16.5-20.3,32.4-19.7c15.9,0.6,26.9,5.1,27.7,7.6
		c0.8,2.5-16.7,46.2-22.1,54.2c-5.4,7.9-40,65.1-45.4,74.6c-5.4,9.5-76,124.3-76,124.3s-89.8-141.1-99.9-157.4
		c-10.2-16.5-69.4-110.9-61.8-151.5c0,0,2.3,6.9,8.6,7.2c6.3,0.3,14.2,0.6,18.5-4.4c4.2-5.1,18.6-43.8,62.6-40.8
		c0,0-28.8,49.1,7.6,116s83.4,122.3,83.4,122.3s33.9-59.7,37.7-99.5s-6.8-59.3-6.8-59.3s-1.7-11,2.5-12.3"/>
	<circle class="st0" cx="204" cy="366.1" r="5.9"/>
	<g>
		<g>
			<polyline class="st0" points="271.3,278.5 67.1,278.5 67.1,288.6 277.8,288.6 270.6,278.5 			"/>
			<circle class="st0" cx="54.4" cy="284.8" r="16.7"/>
			<circle class="st0" cx="53.4" cy="250.5" r="10.5"/>
			<polygon class="st0" points="63.6,252.1 113.7,252.4 147.1,280 155.3,280 116.9,247.4 62,247.4 62,251.9 			"/>
			<polygon class="st0" points="91.4,248.1 61.5,220.1 19.5,220.1 19.5,224.3 59.8,224.3 86.3,248.6 			"/>
		</g>
		<g>
			<g>
				<polygon class="st0" points="308.9,343.2 119.5,343.2 119.5,351.8 312.4,351.8 				"/>
				<circle class="st0" cx="111" cy="348.9" r="13.5"/>
			</g>
			<g>
				<polygon class="st0" points="213.2,343.2 177,311.3 123.1,311.3 123.1,316.3 175.1,316.3 206.4,344.1 213.8,343.7 				"/>
				<circle class="st0" cx="114.9" cy="313.5" r="9.4"/>
			</g>
			<polygon class="st0" points="192,351 156.9,383.2 106.5,383.2 106.5,387.6 158.8,387.6 200.1,351.7 			"/>
			<circle class="st0" cx="98.7" cy="385.7" r="8.9"/>
			<polygon class="st0" points="126.8,386.7 111.7,400.5 85.6,400.5 85.6,403.4 113.4,403.4 131.4,386.9 			"/>
		</g>
		<g>
			<polygon class="st0" points="345.7,404 136.8,404 136.8,410.9 349.3,410.9 			"/>
			<circle class="st0" cx="133" cy="408.8" r="11.2"/>
			<polygon class="st0" points="268,403.5 238.8,363.8 206.4,363.5 206.7,368.3 236.3,368.3 263.2,404.5 			"/>
			<polygon class="st0" points="220.1,410.2 203.6,430.8 180.9,430.8 180.9,433.7 205.3,433.7 223.5,409.9 			"/>
			<polygon class="st0" points="176.3,410 148.2,435.7 103.9,435.7 103.9,439.1 150.9,439.1 182.9,410.7 			"/>
			<circle class="st0" cx="96" cy="438.1" r="9.5"/>
		</g>
	</g>
</g>
</svg>
