<?xml version="1.0" encoding="utf-8"?>
<!-- Generator: Adobe Illustrator 21.0.0, SVG Export Plug-In . SVG Version: 6.00 Build 0)  -->
<svg version="1.1" id="Layer_1" xmlns="http://www.w3.org/2000/svg" xmlns:xlink="http://www.w3.org/1999/xlink" x="0px" y="0px"
	 viewBox="0 0 512 512" style="enable-background:new 0 0 512 512;" xml:space="preserve">
<style type="text/css">
	.st0{fill:#91C6C2;}
	.st1{fill:#127F9E;}
	.st2{fill:#116483;}
	.st3{fill:#377FC2;}
	.st4{fill:#052728;}
	.st5{fill:#71CCD3;}
	.st6{fill:#4FC3CA;}
	.st7{fill:#EDF7F8;}
	.st8{fill:#03415C;}
</style>
<ellipse id="Shadow" class="st0" cx="255.6" cy="480.1" rx="96.6" ry="11.1"/>
<g id="Robot">
	<path class="st1" d="M404.2,180.5c0,130.8-70.6,269.8-148.6,269.8S107,312.1,107,180.5S178.3,20,255.6,20S404.2,49.7,404.2,180.5z"
		/>
	<path class="st2" d="M255.6,20c77.3,0,148.6,29.7,148.6,160.5s-70.6,269.8-148.6,269.8S107,312.1,107,180.5"/>
	<path class="st3" d="M255.6,20c77.3,0,148.6,29.7,148.6,160.5s-70.6,269.8-148.6,269.8"/>
	<path class="st4" d="M220.7,94.3c0,12.6-10.4,32.7-23.8,32.7c-12.6,0-23.8-19.3-23.8-32.7c0-12.6,10.4-23.8,23.8-23.8
		C209.5,70.5,220.7,80.9,220.7,94.3z"/>
	<circle class="st5" cx="196.9" cy="94.3" r="23.8"/>
	<path class="st6" d="M179.8,77.2c8.9-8.9,23.8-8.9,33.4,0c8.9,8.9,8.9,23.8,0,33.4"/>
	<circle class="st5" cx="196.9" cy="94.3" r="13.4"/>
	<path class="st6" d="M196.9,107.7c-7.4,0-13.4-5.9-13.4-13.4c0-7.4,5.9-13.4,13.4-13.4"/>
	<g>
		<circle class="st7" cx="186.5" cy="83.9" r="8.2"/>
		<circle class="st7" cx="210.3" cy="106.2" r="3.7"/>
	</g>
	<path class="st2" d="M338.1,94.3c0,12.6-10.4,32.7-23.8,32.7c-12.6,0-23.8-19.3-23.8-32.7c0-12.6,10.4-23.8,23.8-23.8
		C327.7,70.5,338.1,80.9,338.1,94.3z"/>
	<circle class="st5" cx="314.3" cy="94.3" r="23.8"/>
	<path class="st6" d="M298,77.2c8.9-8.9,23.8-8.9,33.4,0c8.9,8.9,8.9,23.8,0,33.4"/>
	<circle class="st5" cx="314.3" cy="94.3" r="13.4"/>
	<path class="st6" d="M314.3,107.7c-7.4,0-13.4-5.9-13.4-13.4c0-7.4,5.9-13.4,13.4-13.4"/>
	<g>
		<circle class="st7" cx="303.9" cy="83.9" r="8.2"/>
		<circle class="st7" cx="327.7" cy="106.2" r="3.7"/>
	</g>
	<path class="st5" d="M197.6,151.5l-31.2-37.2l0,0h-57.2c-0.7,7.4-1.5,14.9-1.5,14.9h52.8l35.7,37.2l0,0l0,0h52v-14.9H197.6z"/>
	<polyline class="st6" points="107,129.3 160.5,129.3 196.1,166.4 196.1,166.4 196.1,166.4 248.2,166.4 248.2,162 196.9,157.5 
		166.4,121.8 166.4,121.8 	"/>
	<path class="st5" d="M313.6,151.5l31.2-37.2l0,0H402c0.7,7.4,1.5,14.9,1.5,14.9h-52.8l-35.7,37.2l0,0l0,0h-52v-14.9H313.6z"/>
	<polyline class="st6" points="404.2,129.3 350.7,129.3 315.1,166.4 315.1,166.4 315.1,166.4 263,166.4 263,162 314.3,157.5 
		344.8,121.8 344.8,121.8 	"/>
	<circle class="st5" cx="255.6" cy="156.8" r="14.9"/>
	<path class="st6" d="M270.5,156.8c0,8.2-6.7,14.9-14.9,14.9s-14.9-6.7-14.9-14.9"/>
	<path class="st1" d="M107.7,181.3l-0.7-1.5c0,0.7-0.7,0.7-0.7,1.5c0,87,29.7,175.4,74.3,225.9V206.5L153,181.3L107.7,181.3
		L107.7,181.3z"/>
	<path class="st3" d="M107.7,176.1l-0.7,1.5c0,0.7-0.7,2.2-0.7,3c0,87,29.7,176.9,74.3,227.4V203.6"/>
	<path class="st1" d="M402.8,181.3l0.7-1.5c0,0.7,0.7,0.7,0.7,1.5c0,87-29.7,171.7-74.3,223V206.5l27.5-25.3H402.8z"/>
	<path class="st8" d="M403.5,176.1v1.5c0,0.7,0.7,2.2,0.7,3c0,87-29.7,176.9-74.3,227.4V203.6"/>
	
		<ellipse transform="matrix(0.9969 -7.879925e-02 7.879925e-02 0.9969 -16.5904 9.0358)" class="st2" cx="106.2" cy="214.7" rx="5.2" ry="22.3"/>
	<g>
		<circle class="st6" cx="138.2" cy="216.2" r="3"/>
		<circle class="st6" cx="150.1" cy="212.5" r="3"/>
		<circle class="st6" cx="162" cy="209.5" r="3"/>
	</g>
	
		<ellipse transform="matrix(7.889862e-02 -0.9969 0.9969 7.889862e-02 155.0283 597.6545)" class="st1" cx="400.9" cy="214.9" rx="37.2" ry="12.6"/>
	
		<ellipse transform="matrix(7.879925e-02 -0.9969 0.9969 7.879925e-02 158.3063 601.9068)" class="st2" cx="404.8" cy="215.3" rx="22.3" ry="5.2"/>
	<g>
		<circle class="st6" cx="373" cy="216.2" r="3"/>
		<circle class="st6" cx="361.1" cy="212.5" r="3"/>
		<circle class="st6" cx="349.2" cy="209.5" r="3"/>
	</g>
</g>
<g id="Left_x5F_Hand">
	<circle class="st2" cx="66.8" cy="303.2" r="37.9"/>
	<g>
		<path class="st3" d="M66.8,266c20.8,0,37.9,17.1,37.9,37.9s-17.1,37.9-37.9,37.9"/>
		<circle class="st3" cx="66.8" cy="249.7" r="8.9"/>
	</g>
	<polyline class="st6" points="69.8,240.7 69.8,203.6 92.1,203.6 92.1,173.8 107,173.8 	"/>
	
		<ellipse transform="matrix(0.9969 -7.889862e-02 7.889862e-02 0.9969 -16.5958 9.4016)" class="st1" cx="110.7" cy="214.7" rx="12.6" ry="37.2"/>
	<path class="st5" d="M84.7,311.3c0,2.2-1.5,3.7-3.7,3.7H51.2c-2.2,0-3.7-1.5-3.7-3.7l0,0c0-2.2,1.5-3.7,3.7-3.7h29.7
		C83.2,307.6,84.7,309.1,84.7,311.3L84.7,311.3z"/>
</g>
<g id="Right_x5F_Hand_1_">
	<g id="Right_x5F_Hand">
		<circle class="st2" cx="444.4" cy="303.2" r="37.9"/>
		<g>
			<path class="st3" d="M444.4,266c-20.8,0-37.9,17.1-37.9,37.9s17.1,37.9,37.9,37.9"/>
			<circle class="st3" cx="444.4" cy="249.7" r="8.9"/>
		</g>
		<polyline class="st6" points="441.4,240.7 441.4,203.6 419.1,203.6 419.1,173.8 404.2,173.8 		"/>
	</g>
	<path class="st5" d="M463.7,311.3c0-2.2-1.5-3.7-3.7-3.7h-29.7c-2.2,0-3.7,1.5-3.7,3.7l0,0c0,2.2,1.5,3.7,3.7,3.7H460
		C462.2,315.1,463.7,313.6,463.7,311.3L463.7,311.3z"/>
</g>
</svg>
