<?xml version="1.0" encoding="utf-8"?>
<!-- Generator: Adobe Illustrator 21.0.0, SVG Export Plug-In . SVG Version: 6.00 Build 0)  -->
<svg version="1.1" id="Layer_1" xmlns="http://www.w3.org/2000/svg" xmlns:xlink="http://www.w3.org/1999/xlink" x="0px" y="0px"
	 viewBox="0 0 277 180" style="enable-background:new 0 0 277 180;" xml:space="preserve">
<style type="text/css">
	.st0{fill:none;stroke:#81B5E2;stroke-width:2;stroke-miterlimit:10;}
	.st1{fill:#81B5E2;}
	.st2{fill:#FEDE00;}
	.st3{fill:#FFFFFF;}
	.st4{fill:#F37575;}
	.st5{fill:none;stroke:#3780C2;stroke-width:2;stroke-linecap:round;stroke-miterlimit:10;}
	.st6{fill:#FDFEFE;stroke:#78CAB3;stroke-miterlimit:10;}
	.st7{fill:#1A7F9E;}
	.st8{fill:#156584;}
	.st9{fill:#3780C2;}
	.st10{fill:#072728;}
	.st11{fill:#73CCD2;}
	.st12{fill:#50C4CA;}
	.st13{fill:#EDF7F8;}
	.st14{fill:#05415D;}
</style>
<polyline class="st0" points="29,175 167.7,175 167.7,141.6 195,141.6 195,109.4 224.3,109.4 224.3,79.7 253.3,79.7 253.3,50 
	276.9,50 "/>
<g>
	<path class="st1" d="M261.9,135.7c0,0,1.1,4.2,3.2,4.2c2.1,0,1.8-2.2,3.6-2.2c1.7,0.1,3,0.6,3,0.8c0.1,0.3-1.8,5.1-2.4,5.9
		c-0.6,0.9-4.4,7.1-5,8.2c-0.6,1-8.3,13.6-8.3,13.6s-9.9-15.5-11-17.3c-1.1-1.8-7.6-12.2-6.8-16.6c0,0,0.3,0.8,0.9,0.8
		c0.7,0,1.6,0.1,2-0.5c0.5-0.6,2-4.8,6.9-4.5c0,0-3.2,5.4,0.8,12.7c4,7.3,9.1,13.4,9.1,13.4s3.7-6.5,4.1-10.9
		c0.4-4.4-0.7-6.5-0.7-6.5s-0.2-1.2,0.3-1.3"/>
	<circle class="st1" cx="240" cy="161.4" r="0.6"/>
	<g>
		<g>
			<polyline class="st1" points="247.4,151.8 225,151.8 225,152.9 248.1,152.9 247.3,151.8 			"/>
			<circle class="st1" cx="223.6" cy="152.5" r="1.8"/>
			<circle class="st1" cx="223.5" cy="148.8" r="1.2"/>
			<polygon class="st1" points="224.6,148.9 230.1,149 233.8,152 234.7,152 230.5,148.4 224.4,148.4 224.4,148.9 			"/>
			<polygon class="st1" points="227.7,148.5 224.4,145.4 219.8,145.4 219.8,145.9 224.2,145.9 227.1,148.5 			"/>
		</g>
		<g>
			<g>
				<polygon class="st1" points="251.5,158.9 230.7,158.9 230.7,159.9 251.9,159.9 				"/>
				<circle class="st1" cx="229.8" cy="159.5" r="1.5"/>
			</g>
			<g>
				<polygon class="st1" points="241,158.9 237,155.4 231.1,155.4 231.1,156 236.8,156 240.3,159 241.1,159 				"/>
				<circle class="st1" cx="230.2" cy="155.7" r="1"/>
			</g>
			<polygon class="st1" points="238.7,159.8 234.8,163.3 229.3,163.3 229.3,163.8 235.1,163.8 239.6,159.9 			"/>
			<circle class="st1" cx="228.5" cy="163.6" r="1"/>
			<polygon class="st1" points="231.5,163.7 229.9,165.2 227,165.2 227,165.5 230.1,165.5 232,163.7 			"/>
		</g>
		<g>
			<polygon class="st1" points="255.6,165.6 232.6,165.6 232.6,166.3 255.9,166.3 			"/>
			<circle class="st1" cx="232.2" cy="166.1" r="1.2"/>
			<polygon class="st1" points="247,165.5 243.8,161.2 240.3,161.1 240.3,161.7 243.6,161.7 246.5,165.6 			"/>
			<polygon class="st1" points="241.8,166.3 240,168.5 237.5,168.5 237.5,168.8 240.2,168.8 242.1,166.2 			"/>
			<polygon class="st1" points="237,166.2 233.9,169.1 229,169.1 229,169.4 234.2,169.4 237.7,166.3 			"/>
			<circle class="st1" cx="228.2" cy="169.3" r="1"/>
		</g>
	</g>
</g>
<g>
	<circle class="st2" cx="122.5" cy="159.8" r="11.2"/>
	<circle class="st3" cx="125.6" cy="156.2" r="2.1"/>
</g>
<circle class="st4" cx="160.5" cy="21.9" r="5.7"/>
<line class="st5" x1="66.5" y1="20.5" x2="146.3" y2="20.5"/>
<line class="st5" x1="125.6" y1="9.8" x2="192.8" y2="9.8"/>
<line class="st5" x1="110.7" y1="32.4" x2="157" y2="32.4"/>
<polygon class="st1" points="149.7,48.1 94.6,96.4 169.1,120.7 "/>
<g>
	<path class="st6" d="M255,39.2l-15.9-15.9c-0.6-0.6-0.6-1.5,0-2L255,5.4c0.6-0.6,1.5-0.6,2,0l15.9,15.9c0.6,0.6,0.6,1.5,0,2
		L257,39.2C256.4,39.8,255.6,39.8,255,39.2z"/>
	
		<rect x="246.9" y="13.5" transform="matrix(0.7071 0.7071 -0.7071 0.7071 90.8215 -174.3602)" class="st6" width="18" height="18"/>
</g>
<g>
	<ellipse id="Shadow" class="st1" cx="230.7" cy="74.2" rx="6.4" ry="0.7"/>
	<g id="Robot">
		<path class="st7" d="M240.5,54.4c0,8.7-4.7,17.9-9.8,17.9s-9.8-9.2-9.8-17.9s4.7-10.6,9.8-10.6C235.8,43.8,240.5,45.7,240.5,54.4z
			"/>
		<path class="st8" d="M230.7,43.8c5.1,0,9.8,2,9.8,10.6s-4.7,17.9-9.8,17.9s-9.8-9.2-9.8-17.9"/>
		<path class="st9" d="M230.7,43.8c5.1,0,9.8,2,9.8,10.6s-4.7,17.9-9.8,17.9"/>
		<path class="st10" d="M228.4,48.7c0,0.8-0.7,2.2-1.6,2.2c-0.8,0-1.6-1.3-1.6-2.2c0-0.8,0.7-1.6,1.6-1.6
			C227.6,47.1,228.4,47.8,228.4,48.7z"/>
		<circle class="st11" cx="226.8" cy="48.7" r="1.6"/>
		<path class="st12" d="M225.7,47.5c0.6-0.6,1.6-0.6,2.2,0c0.6,0.6,0.6,1.6,0,2.2"/>
		<circle class="st11" cx="226.8" cy="48.7" r="0.9"/>
		<path class="st12" d="M226.8,49.6c-0.5,0-0.9-0.4-0.9-0.9c0-0.5,0.4-0.9,0.9-0.9"/>
		<g>
			<circle class="st13" cx="226.1" cy="48" r="0.5"/>
			<circle class="st13" cx="227.7" cy="49.5" r="0.2"/>
		</g>
		<path class="st8" d="M236.1,48.7c0,0.8-0.7,2.2-1.6,2.2c-0.8,0-1.6-1.3-1.6-2.2c0-0.8,0.7-1.6,1.6-1.6S236.1,47.8,236.1,48.7z"/>
		<circle class="st11" cx="234.6" cy="48.7" r="1.6"/>
		<path class="st12" d="M233.5,47.5c0.6-0.6,1.6-0.6,2.2,0c0.6,0.6,0.6,1.6,0,2.2"/>
		<circle class="st11" cx="234.6" cy="48.7" r="0.9"/>
		<path class="st12" d="M234.6,49.6c-0.5,0-0.9-0.4-0.9-0.9c0-0.5,0.4-0.9,0.9-0.9"/>
		<g>
			<circle class="st13" cx="233.9" cy="48" r="0.5"/>
			<circle class="st13" cx="235.5" cy="49.5" r="0.2"/>
		</g>
		<path class="st11" d="M226.8,52.5l-2.1-2.5l0,0H221c0,0.5-0.1,1-0.1,1h3.5l2.4,2.5l0,0l0,0h3.4v-1H226.8z"/>
		<polyline class="st12" points="220.8,51 224.4,51 226.7,53.4 226.7,53.4 226.7,53.4 230.2,53.4 230.2,53.2 226.8,52.9 224.8,50.5 
			224.8,50.5 		"/>
		<path class="st11" d="M234.5,52.5l2.1-2.5l0,0h3.8c0,0.5,0.1,1,0.1,1H237l-2.4,2.5l0,0l0,0h-3.4v-1H234.5z"/>
		<polyline class="st12" points="240.5,51 237,51 234.6,53.4 234.6,53.4 234.6,53.4 231.2,53.4 231.2,53.2 234.6,52.9 236.6,50.5 
			236.6,50.5 		"/>
		<circle class="st11" cx="230.7" cy="52.8" r="1"/>
		<path class="st12" d="M231.7,52.8c0,0.5-0.4,1-1,1s-1-0.4-1-1"/>
		<path class="st7" d="M220.9,54.4L220.9,54.4C220.8,54.4,220.8,54.4,220.9,54.4c-0.1,5.8,1.9,11.6,4.8,15V56.1l-1.8-1.7H220.9
			L220.9,54.4z"/>
		<path class="st9" d="M220.9,54.1L220.9,54.1c0,0.1-0.1,0.2-0.1,0.3c0,5.8,2,11.7,4.9,15.1V55.9"/>
		<path class="st7" d="M240.4,54.4L240.4,54.4C240.5,54.4,240.5,54.4,240.4,54.4c0.1,5.8-1.9,11.4-4.8,14.8V56.1l1.8-1.7L240.4,54.4
			L240.4,54.4z"/>
		<path class="st14" d="M240.5,54.1L240.5,54.1c0,0.1,0,0.2,0,0.3c0,5.8-2,11.7-4.9,15.1V55.9"/>
		
			<ellipse transform="matrix(0.9969 -7.879850e-02 7.879850e-02 0.9969 -3.7768 17.5741)" class="st8" cx="220.8" cy="56.6" rx="0.3" ry="1.5"/>
		<g>
			<circle class="st12" cx="222.9" cy="56.7" r="0.2"/>
			<circle class="st12" cx="223.7" cy="56.5" r="0.2"/>
			<circle class="st12" cx="224.5" cy="56.3" r="0.2"/>
		</g>
		
			<ellipse transform="matrix(7.889726e-02 -0.9969 0.9969 7.889726e-02 164.8625 291.743)" class="st7" cx="240.3" cy="56.7" rx="2.5" ry="0.8"/>
		
			<ellipse transform="matrix(7.879850e-02 -0.9969 0.9969 7.879850e-02 165.1016 292.0337)" class="st8" cx="240.6" cy="56.7" rx="1.5" ry="0.3"/>
		<g>
			<circle class="st12" cx="238.5" cy="56.7" r="0.2"/>
			<circle class="st12" cx="237.7" cy="56.5" r="0.2"/>
			<circle class="st12" cx="236.9" cy="56.3" r="0.2"/>
		</g>
	</g>
	<g id="Left_x5F_Hand">
		<circle class="st8" cx="218.2" cy="62.5" r="2.5"/>
		<g>
			<path class="st9" d="M218.2,60c1.4,0,2.5,1.1,2.5,2.5c0,1.4-1.1,2.5-2.5,2.5"/>
			<circle class="st9" cx="218.2" cy="59" r="0.6"/>
		</g>
		<polyline class="st12" points="218.4,58.4 218.4,55.9 219.9,55.9 219.9,53.9 220.8,53.9 		"/>
		
			<ellipse transform="matrix(0.9969 -7.889726e-02 7.889726e-02 0.9969 -3.7797 17.6199)" class="st7" cx="221.1" cy="56.6" rx="0.8" ry="2.5"/>
		<path class="st11" d="M219.4,63c0,0.1-0.1,0.2-0.2,0.2h-2c-0.1,0-0.2-0.1-0.2-0.2l0,0c0-0.1,0.1-0.2,0.2-0.2h2
			C219.3,62.8,219.4,62.9,219.4,63L219.4,63z"/>
	</g>
	<g id="Right_x5F_Hand_1_">
		<g id="Right_x5F_Hand">
			<circle class="st8" cx="243.2" cy="62.5" r="2.5"/>
			<g>
				<path class="st9" d="M243.2,60c-1.4,0-2.5,1.1-2.5,2.5c0,1.4,1.1,2.5,2.5,2.5"/>
				<circle class="st9" cx="243.2" cy="59" r="0.6"/>
			</g>
			<polyline class="st12" points="243,58.4 243,55.9 241.5,55.9 241.5,53.9 240.5,53.9 			"/>
		</g>
		<path class="st11" d="M244.5,63c0-0.1-0.1-0.2-0.2-0.2h-2c-0.1,0-0.2,0.1-0.2,0.2l0,0c0,0.1,0.1,0.2,0.2,0.2h2
			C244.4,63.3,244.5,63.2,244.5,63L244.5,63z"/>
	</g>
</g>
</svg>
